# File produced by Open Asset Import Library (http://www.assimp.sf.net)
# (assimp v3.1.187496374)

mtllib Plateau base.obj.mtl

# 138 vertex positions
v  24 48 -0.25
v  0 0 -0.25
v  0 48 -0.25
v  24 0 -0.25
v  0 48 0
v  0 0 0
v  24 48 0
v  24 0 0
v  16.5 -1.54198e-18 0
v  15.5 0 0
v  2.14197 7 -1.1632e-31
v  2.82947 7 -1.1632e-31
v  2.14197 15 -1.1632e-31
v  2.82947 15 -1.1632e-31
v  19.1845 15 -7.88861e-31
v  19.872 15 -7.88861e-31
v  19.1845 7 -7.88861e-31
v  19.872 7 -7.88861e-31
v  19.872 7 1.5
v  19.872 15 1.5
v  19.1845 15 1.5
v  19.1845 7 1.5
v  2.82947 7 1.5
v  2.82947 15 1.5
v  2.14197 15 1.5
v  2.14197 7 1.5
v  23.8438 0 1.5
v  23.1562 30 1.5
v  23.1562 0 1.5
v  23.8438 30 1.5
v  23.8438 30 0
v  23.8438 0 0
v  23.1562 30 0
v  23.1562 0 0
v  21.8438 0 1.5
v  21.1562 30 1.5
v  21.1562 0 1.5
v  21.8438 30 1.5
v  21.8438 30 0
v  21.8438 0 0
v  21.1562 30 0
v  21.1562 0 0
v  0.15625 24 1.5
v  0.15625 5 0
v  0.15625 5 1.5
v  0.15625 24 0
v  0.84375 24 0
v  0.84375 5 0
v  0.84375 5 1.5
v  0.84375 24 1.5
v  21.5 5.01386 2.38419e-07
v  15.5 -4.5897e-07 0
v  21.5 5.98614 2.38419e-07
v  16.5 -3.71547e-07 0
v  21.5 5.01386 1.5
v  21.5 5.98614 1.5
v  16.5 -4.37114e-07 1.5
v  15.5 -5.24537e-07 1.5
v  5.51386 2.19163e-07 2.38419e-07
v  0.5 6 0
v  6.48614 2.61662e-07 2.38419e-07
v  0.5 5 0
v  5.51386 2.19163e-07 1.5
v  6.48614 2.61662e-07 1.5
v  0.5 5 1.5
v  0.5 6 1.5
v  6.01107 3.1416 1.19209e-07
v  2.14197 8 0
v  6.5 3.63188 2.38419e-07
v  2.14197 7 0
v  6.5 3.63188 1.5
v  2.14197 8 1.5
v  6.01107 3.1416 1.5
v  2.14197 7 1.5
v  16.0029 3.14159 1.5
v  19.872 8 1.5
v  15.514 3.63188 1.5
v  15.514 3.63188 1.90496e-07
v  19.872 8 -8.88179e-16
v  16.0029 3.14159 1.69124e-07
v  19.872 7 -8.88179e-16
v  2.14197 14 -6.72795e-14
v  2.14197 15 1.5
v  2.14197 15 -6.72795e-14
v  2.14197 14 1.5
v  3.99655 15.8589 8.10662e-08
v  3.99655 15.8589 1.5
v  3.5 16.3543 1.5
v  3.5 16.3543 5.93614e-08
v  19.872 14 1.5
v  19.872 15 0
v  19.872 14 0
v  18.0175 15.8589 1.5
v  18.0175 15.8589 1.19209e-07
v  18.514 16.3543 0
v  18.514 16.3543 1.5
v  4.84375 13 0
v  4.15625 8 0
v  4.15625 13 0
v  4.84375 8 0
v  4.15625 13 1.5
v  4.15625 8 1.5
v  4.84375 13 1.5
v  4.84375 8 1.5
v  17.8438 13 0
v  17.1562 8 0
v  17.1562 13 0
v  17.8438 8 0
v  17.1562 13 1.5
v  17.1562 8 1.5
v  17.8438 13 1.5
v  17.8438 8 1.5
v  4.15625 12 4.19664e-14
v  4.15625 13 1.5
v  4.15625 13 4.19664e-14
v  4.15625 12 1.5
v  6.01083 13.8589 8.10663e-08
v  6.01083 13.8589 1.5
v  5.51428 14.3543 1.5
v  5.51428 14.3543 5.93615e-08
v  17.8438 12 1.5
v  17.8438 12 0
v  15.9892 13.8589 1.5
v  15.9892 13.8589 1.19209e-07
v  16.4857 14.3543 0
v  16.4857 14.3543 1.5
v  6.5 5.66273 1.19209e-07
v  4.15625 9 0
v  6.99404 6.15563 1.19209e-07
v  6.99404 6.15563 1.5
v  4.15625 9 1.5
v  6.5 5.66273 1.5
v  15.5 5.66273 1.5
v  17.8438 9 1.5
v  15.006 6.15563 1.5
v  15.006 6.15563 1.24044e-07
v  17.8438 9 0
v  15.5 5.66273 1.02449e-07

# 0 UV coordinates

# 46 vertex normals
vn 0 0 -1
vn -1 0 0
vn 0 1 0
vn 1 0 0
vn 4.16784e-19 -1 -8.0349e-17
vn 0 0 1
vn 0 -1 0
vn -3.82137e-15 4.37114e-08 -1
vn 1 8.74228e-08 -1.99471e-23
vn 0.708085 -0.706127 -3.08658e-08
vn 8.74228e-08 -1 -4.37114e-08
vn -0.706288 0.707924 3.09443e-08
vn 3.82137e-15 -4.37114e-08 1
vn 4.37114e-08 1.91069e-15 -1
vn 4.37114e-08 -1 -1.99471e-23
vn -0.706127 -0.708085 -3.08658e-08
vn -1 -4.37114e-08 -4.37114e-08
vn 0.707924 0.706288 3.09443e-08
vn -4.37114e-08 -1.91069e-15 1
vn 4.37114e-08 3.16344e-15 -1
vn 0.708085 -0.706127 3.09514e-08
vn -4.37114e-08 -1.96782e-15 1
vn 4.37114e-08 3.16344e-15 1
vn -0.707924 0.706288 3.09443e-08
vn -0.708085 -0.706127 3.09514e-08
vn 0.706127 -0.708085 -3.08658e-08
vn 1 4.37114e-08 -4.37114e-08
vn -4.37114e-08 -1.96782e-15 -1
vn -1 4.37114e-08 -4.37114e-08
vn 0.707924 -0.706288 3.09443e-08
vn -4.37114e-08 9.06198e-16 1
vn -0.706127 0.708085 -3.08658e-08
vn 4.37114e-08 -1.20634e-15 -1
vn 0.706288 0.707924 3.08728e-08
vn 1 -4.37114e-08 -4.37114e-08
vn -0.707924 -0.706288 3.09443e-08
vn -4.37114e-08 9.06199e-16 -1
vn 0.706127 0.708085 -3.08658e-08
vn 4.37114e-08 -1.20634e-15 1
vn -0.706288 0.707924 3.08729e-08
vn 4.37114e-08 4.1824e-15 -1
vn 0.706288 -0.707924 3.08728e-08
vn -4.37114e-08 -1.97412e-15 1
vn 4.37114e-08 4.1824e-15 1
vn -0.706288 -0.707924 3.08728e-08
vn -4.37114e-08 -1.97412e-15 -1

# Mesh 'SketchUp_ID68' with 26 faces
g SketchUp_ID68
usemtl material
f  1//1 2//1 3//1
f  2//1 1//1 4//1
f  5//2 2//2 6//2
f  2//2 5//2 3//2
f  5//3 1//3 3//3
f  1//3 5//3 7//3
f  1//4 8//4 4//4
f  8//4 1//4 7//4
f  8//5 2//5 4//5
f  2//5 8//5 6//5
f  6//5 8//5 9//5
f  6//5 9//5 10//5
f  6//6 11//6 5//6
f  11//6 6//6 8//6
f  11//6 8//6 12//6
f  13//6 5//6 11//6
f  5//6 13//6 7//6
f  7//6 13//6 14//6
f  7//6 14//6 15//6
f  7//6 15//6 16//6
f  7//6 16//6 8//6
f  12//6 8//6 14//6
f  14//6 8//6 17//6
f  15//6 14//6 17//6
f  17//6 8//6 18//6
f  18//6 8//6 16//6

# Mesh 'ID74_ID74' with 12 faces
g ID74_ID74
usemtl material
f  18//6 15//6 17//6
f  15//6 18//6 16//6
f  16//4 19//4 18//4
f  19//4 16//4 20//4
f  21//3 16//3 15//3
f  16//3 21//3 20//3
f  21//2 17//2 22//2
f  17//2 21//2 15//2
f  19//7 17//7 18//7
f  17//7 19//7 22//7
f  19//6 21//6 22//6
f  21//6 19//6 20//6

# Mesh 'ID80_ID80' with 12 faces
g ID80_ID80
usemtl material
f  14//4 23//4 12//4
f  23//4 14//4 24//4
f  12//6 13//6 11//6
f  13//6 12//6 14//6
f  25//3 14//3 13//3
f  14//3 25//3 24//3
f  23//6 25//6 26//6
f  25//6 23//6 24//6
f  23//7 11//7 12//7
f  11//7 23//7 26//7
f  25//2 11//2 26//2
f  11//2 25//2 13//2

# Mesh 'Composant_2_ID4' with 12 faces
g Composant_2_ID4
usemtl material
f  27//6 28//6 29//6
f  28//6 27//6 30//6
f  31//4 27//4 32//4
f  27//4 31//4 30//4
f  28//3 31//3 33//3
f  31//3 28//3 30//3
f  28//2 34//2 29//2
f  34//2 28//2 33//2
f  27//7 34//7 32//7
f  34//7 27//7 29//7
f  31//1 34//1 33//1
f  34//1 31//1 32//1

# Mesh 'Composant_2_ID4' with 12 faces
g Composant_2_ID4
usemtl material
f  35//6 36//6 37//6
f  36//6 35//6 38//6
f  39//4 35//4 40//4
f  35//4 39//4 38//4
f  36//3 39//3 41//3
f  39//3 36//3 38//3
f  36//2 42//2 37//2
f  42//2 36//2 41//2
f  35//7 42//7 40//7
f  42//7 35//7 37//7
f  39//1 42//1 41//1
f  42//1 39//1 40//1

# Mesh 'Composant_3_ID15' with 12 faces
g Composant_3_ID15
usemtl material
f  43//2 44//2 45//2
f  44//2 43//2 46//2
f  47//1 44//1 46//1
f  44//1 47//1 48//1
f  49//7 44//7 48//7
f  44//7 49//7 45//7
f  49//6 43//6 45//6
f  43//6 49//6 50//6
f  43//3 47//3 46//3
f  47//3 43//3 50//3
f  47//4 49//4 48//4
f  49//4 47//4 50//4

# Mesh 'Composant_4_ID23' with 12 faces
g Composant_4_ID23
usemtl material
f  51//8 52//8 53//8
f  52//8 51//8 54//8
f  55//9 53//9 56//9
f  53//9 55//9 51//9
f  57//10 51//10 55//10
f  51//10 57//10 54//10
f  58//11 54//11 57//11
f  54//11 58//11 52//11
f  52//12 56//12 53//12
f  56//12 52//12 58//12
f  58//13 55//13 56//13
f  55//13 58//13 57//13

# Mesh 'Composant_4_ID23' with 12 faces
g Composant_4_ID23
usemtl material
f  59//14 60//14 61//14
f  60//14 59//14 62//14
f  63//15 61//15 64//15
f  61//15 63//15 59//15
f  65//16 59//16 63//16
f  59//16 65//16 62//16
f  66//17 62//17 65//17
f  62//17 66//17 60//17
f  60//18 64//18 61//18
f  64//18 60//18 66//18
f  66//19 63//19 64//19
f  63//19 66//19 65//19

# Mesh 'Composant_5_ID32' with 12 faces
g Composant_5_ID32
usemtl material
f  67//20 68//20 69//20
f  68//20 67//20 70//20
f  68//18 71//18 69//18
f  71//18 68//18 72//18
f  69//21 73//21 67//21
f  73//21 69//21 71//21
f  74//16 67//16 73//16
f  67//16 74//16 70//16
f  72//17 70//17 74//17
f  70//17 72//17 68//17
f  72//22 73//22 71//22
f  73//22 72//22 74//22

# Mesh 'Composant_5_ID32' with 12 faces
g Composant_5_ID32
usemtl material
f  75//23 76//23 77//23
f  76//23 75//23 19//23
f  76//24 78//24 77//24
f  78//24 76//24 79//24
f  77//25 80//25 75//25
f  80//25 77//25 78//25
f  81//26 75//26 80//26
f  75//26 81//26 19//26
f  79//27 19//27 81//27
f  19//27 79//27 76//27
f  79//28 80//28 78//28
f  80//28 79//28 81//28

# Mesh 'Composant_6_ID41' with 12 faces
g Composant_6_ID41
usemtl material
f  82//29 83//29 84//29
f  83//29 82//29 85//29
f  85//30 86//30 87//30
f  86//30 85//30 82//30
f  88//31 85//31 87//31
f  85//31 88//31 83//31
f  83//32 89//32 84//32
f  89//32 83//32 88//32
f  82//33 89//33 86//33
f  89//33 82//33 84//33
f  89//34 87//34 86//34
f  87//34 89//34 88//34

# Mesh 'Composant_6_ID41' with 12 faces
g Composant_6_ID41
usemtl material
f  90//35 91//35 20//35
f  91//35 90//35 92//35
f  92//36 93//36 94//36
f  93//36 92//36 90//36
f  95//37 92//37 94//37
f  92//37 95//37 91//37
f  91//38 96//38 20//38
f  96//38 91//38 95//38
f  90//39 96//39 93//39
f  96//39 90//39 20//39
f  96//40 94//40 93//40
f  94//40 96//40 95//40

# Mesh 'Composant_7_ID50' with 12 faces
g Composant_7_ID50
usemtl material
f  97//1 98//1 99//1
f  98//1 97//1 100//1
f  101//2 98//2 102//2
f  98//2 101//2 99//2
f  101//3 97//3 99//3
f  97//3 101//3 103//3
f  97//4 104//4 100//4
f  104//4 97//4 103//4
f  104//7 98//7 100//7
f  98//7 104//7 102//7
f  104//6 101//6 102//6
f  101//6 104//6 103//6

# Mesh 'Composant_7_ID50' with 12 faces
g Composant_7_ID50
usemtl material
f  105//1 106//1 107//1
f  106//1 105//1 108//1
f  109//2 106//2 110//2
f  106//2 109//2 107//2
f  109//3 105//3 107//3
f  105//3 109//3 111//3
f  105//4 112//4 108//4
f  112//4 105//4 111//4
f  112//7 106//7 108//7
f  106//7 112//7 110//7
f  112//6 109//6 110//6
f  109//6 112//6 111//6

# Mesh 'Composant_6_ID41' with 12 faces
g Composant_6_ID41
usemtl material
f  113//29 114//29 115//29
f  114//29 113//29 116//29
f  116//30 117//30 118//30
f  117//30 116//30 113//30
f  119//31 116//31 118//31
f  116//31 119//31 114//31
f  114//32 120//32 115//32
f  120//32 114//32 119//32
f  113//33 120//33 117//33
f  120//33 113//33 115//33
f  120//34 118//34 117//34
f  118//34 120//34 119//34

# Mesh 'Composant_6_ID41' with 12 faces
g Composant_6_ID41
usemtl material
f  121//35 105//35 111//35
f  105//35 121//35 122//35
f  122//36 123//36 124//36
f  123//36 122//36 121//36
f  125//37 122//37 124//37
f  122//37 125//37 105//37
f  105//38 126//38 111//38
f  126//38 105//38 125//38
f  121//39 126//39 123//39
f  126//39 121//39 111//39
f  126//40 124//40 123//40
f  124//40 126//40 125//40

# Mesh 'Composant_8_ID61' with 12 faces
g Composant_8_ID61
usemtl material
f  127//41 128//41 129//41
f  128//41 127//41 98//41
f  128//18 130//18 129//18
f  130//18 128//18 131//18
f  132//42 129//42 130//42
f  129//42 132//42 127//42
f  98//16 132//16 102//16
f  132//16 98//16 127//16
f  131//17 98//17 102//17
f  98//17 131//17 128//17
f  131//43 132//43 130//43
f  132//43 131//43 102//43

# Mesh 'Composant_8_ID61' with 12 faces
g Composant_8_ID61
usemtl material
f  133//44 134//44 135//44
f  134//44 133//44 112//44
f  134//24 136//24 135//24
f  136//24 134//24 137//24
f  138//45 135//45 136//45
f  135//45 138//45 133//45
f  112//26 138//26 108//26
f  138//26 112//26 133//26
f  137//27 112//27 108//27
f  112//27 137//27 134//27
f  137//46 138//46 136//46
f  138//46 137//46 108//46

